# xmcd
#
# Track frame offsets: 
#        150
#        1927
#        15307
#        27822
#        43910
#        60997
#        71867
#        83082
#        98237
#        118187
#        138860
#        150927
#        169467
#        183377
#        199280
#
# Disc length: 3152 seconds
#
# Revision: 3
# Processed by: cddbd v1.5.2PL0 Copyright (c) Steve Scherf et al.
# Submitted via: ExactAudioCopy v1.0b1
#
DISCID=be0c4e0f
DTITLE=Сектор Газа - Ядрона вошь
DYEAR=1997
DGENRE=Punk Rock
TTITLE0=Мы-совковые ребята
TTITLE1=Скотник
TTITLE2=Носки
TTITLE3=Импотент
TTITLE4=Ядрена вошь
TTITLE5=Мент
TTITLE6=Колыбельная
TTITLE7=План
TTITLE8=Спор
TTITLE9=Караван
TTITLE10=Пердун
TTITLE11=Вечером на лавочке
TTITLE12=Возле дома твоего
TTITLE13=Минет
TTITLE14=Ядрена вошь (remix)
EXTD=YEAR: 1990
EXTT0=
EXTT1=
EXTT2=
EXTT3=
EXTT4=
EXTT5=
EXTT6=
EXTT7=
EXTT8=
EXTT9=
EXTT10=
EXTT11=
EXTT12=
EXTT13=
EXTT14=
PLAYORDER=
